<svg id="Layer_1" xmlns="http://www.w3.org/2000/svg" viewBox="0 0 36 24"><style>.st0{fill:#FFFFFF;}</style><path class="st0" d="M33 16.5l-2-8.9h-1.9c-.6 0-1 .2-1.3.7l-3.6 8.2h2.6s.4-1.1.5-1.3h3.1c.1.3.3 1.3.3 1.3H33zm-8.5-2.9c0-1-.6-1.8-2-2.4-.9-.5-1.5-.8-1.5-1.2 0-.4.4-.8 1.4-.8.8 0 1.4.2 1.8.3l.2.1.3-1.9c-.5-.2-1.2-.4-2.2-.4-2.4 0-4.1 1.2-4.1 2.9 0 1.3 1.2 2 2.1 2.4.9.4 1.3.7 1.3 1.1 0 .6-.8.9-1.5.9-1 0-1.5-.1-2.3-.5l-.3-.1-.3 2c.6.2 1.6.5 2.7.5 2.7.1 4.3-1.1 4.4-2.9zm-7-6h-2.4l-1.5 8.9H16l1.5-8.9zm-7.2 8.9l3.8-8.9h-2.6l-2.4 6.1-.3-1.2L8 8.3c-.1-.6-.5-.7-1.1-.7H3v.2c1 .2 1.8.6 2.6 1l2.2 7.7h2.5zM36 3v18c0 1.7-1.3 3-3 3H3c-1.7 0-3-1.3-3-3V3c0-1.7 1.3-3 3-3h30c1.7 0 3 1.3 3 3zm-6.5 7.7s.5 2.1.6 2.6h-2l1-2.5s.2-.5.3-.9l.1.8z"/></svg>