<svg id="Layer_1" xmlns="http://www.w3.org/2000/svg" viewBox="0 0 36 24"><style>.st0{fill:#FFFFFF;}</style><path class="st0" d="M31.5 15.5h-4.3l-.9-1.1-1 1.1H10.1l-.5-1.1h-1l-.5 1.1H4.5l3-7h7.2l.8 1.8.8-1.8h9.1l.9 1.1 1-1.1h4.2L28.4 12l3.1 3.5zM33 0H3C1.3 0 0 1.3 0 3v18c0 1.7 1.3 3 3 3h30c1.7 0 3-1.3 3-3V3c0-1.7-1.3-3-3-3zM8.3 12.3l.8-2 .8 2H8.3zm7.3.6L14 9.5h-1.9v4.7l-2-4.7H8.3l-2.1 5h1.3l.5-1.1h2.5l.5 1.1h2.4v-3.9l1.7 3.9h.9l1.7-3.9v3.9h1.2v-5H17l-1.4 3.4zm-4.5-3.6zm13 4.2h-2.9v-1h2.6v-1h-2.6v-.9h3l1.3 1.5-1.4 1.4zm3.7-4l-1.5 1.6-1.5-1.6H20v5h4.7l1.5-1.7 1.5 1.7h1.5L27 12l2.2-2.5h-1.4z"/></svg>