<svg id="Layer_1" xmlns="http://www.w3.org/2000/svg" viewBox="0 0 36 24"><style>.st0{fill:#FFFFFF;}</style><path class="st0" d="M34.5 13.7s-8.6 6.1-24.3 8.8h22.5c1 0 1.9-.8 1.9-1.9v-6.9zm-22.3-1.8c0 .4-.3.6-.7.6-.4 0-.8-.2-1-.6l-.6.6c.4.6.9.9 1.6.9.9 0 1.6-.6 1.6-1.5 0-.7-.3-1.1-1.3-1.4-.5-.2-.7-.3-.7-.6s.3-.5.7-.5c.3 0 .5.1.7.4l.5-.6c-.4-.3-.8-.5-1.3-.5-.8 0-1.4.6-1.4 1.3 0 .6.3 1 1.1 1.3.4.1.5.2.6.3.1-.1.2.1.2.3zM9.6 8.7h-.9v4.6h.9V8.7zM8.3 11c0-1.4-1-2.3-2.5-2.3H4.5v4.6h1.3c.7 0 1.2-.2 1.6-.5.6-.5.9-1.2.9-1.8zm5.1 0c0 1.3 1.1 2.4 2.4 2.4.4 0 .7-.1 1.1-.3V12c-.4.4-.7.5-1.1.5-.9 0-1.5-.7-1.5-1.6 0-.9.7-1.6 1.5-1.6.4 0 .7.2 1.1.5v-1c-.4-.2-.7-.3-1.1-.3-1.3.1-2.4 1.1-2.4 2.5zm3.8 0c0 1.4 1.1 2.5 2.5 2.5s2.5-1.1 2.5-2.5-1.1-2.5-2.5-2.5-2.5 1.1-2.5 2.5zm4.6-2.3l1.9 4.7h.5l2-4.7h-1l-1.2 3-1.2-3.1h-1zm4.8 4.6h2.5v-.8h-1.6v-1.2h1.6v-.8h-1.6v-1h1.6v-.8h-2.5v4.6zm3.1 0h.9v-1.8h.1l1.2 1.8H33l-1.4-1.9c.7-.1 1-.6 1-1.3 0-.9-.6-1.4-1.6-1.4h-1.3v4.6zM36 3v18c0 1.7-1.3 3-3 3H3c-1.7 0-3-1.3-3-3V3c0-1.7 1.3-3 3-3h30c1.7 0 3 1.3 3 3zM5.6 9.4h-.2v3h.2c.6 0 .9-.1 1.2-.4.3-.3.5-.7.5-1.2 0-.4-.2-.9-.5-1.1-.2-.2-.6-.3-1.2-.3zm25.3 1.4h-.3V9.4h.3c.6 0 .9.2.9.7 0 .4-.3.7-.9.7z"/></svg>