<svg id="Layer_1" xmlns="http://www.w3.org/2000/svg" viewBox="0 0 36 24"><style>.st0{fill:#FFFFFF;}</style><path class="st0" d="M23.7 11.7c-.4 2.2-1.9 3-3.7 3h-.3c-.2 0-.4.2-.5.4l-.4 2.5c0 .2-.2.4-.5.4H17c-.2 0-.3-.2-.3-.4l.7-4.4h1.1c2.6 0 4.3-1.3 4.7-3.8.4.4.5.9.5 1.5.1.2 0 .5 0 .8zm-7.6 5h-2c-.2 0-.3-.2-.3-.3 0-.6.4-2.5 1.5-9.9 0-.3.3-.5.5-.5h3.7c2 0 3.4 1.2 3 3.2-.4 2.1-1.7 3.2-4 3.2h-1.1c-.5 0-.6.2-.7.6l-.6 3.7zM33 0H3C1.3 0 0 1.3 0 3v18c0 1.7 1.3 3 3 3h30c1.7 0 3-1.3 3-3V3c0-1.7-1.3-3-3-3z"/></svg>