<svg id="Layer_1" xmlns="http://www.w3.org/2000/svg" viewBox="0 0 36 24"><style>.st0{fill:#FFFFFF;}</style><path class="st0" d="M27.7 10.5c0-3.3-2.7-6-6-6s-6 2.7-6 6 2.7 6 6 6 6-2.7 6-6zm-1 6.7h-.3v.8c-.1-.1-.3-.2-.5-.2-.4 0-.8.3-.8.8s.3.8.8.8c.2 0 .4-.1.5-.2v.2h.3v-2.2zm-1.7.7h-.2c-.2 0-.3.1-.4.2v-.2H24v1.6h.3v-.9c0-.3.1-.4.3-.4h.2l.2-.3zm-1.5 0h-.3v.2c-.1-.1-.3-.2-.5-.2-.4 0-.8.3-.8.8s.3.8.8.8c.2 0 .4-.1.5-.2v.2h.3v-1.6zm-2.9.8c0-.3.2-.5.5-.5.1 0 .3 0 .4.1l.2-.3c-.2-.1-.3-.2-.6-.2-.5 0-.8.4-.8.8 0 .5.3.8.8.8.2 0 .4-.1.6-.2l-.2-.2c-.1.1-.3.1-.4.1-.3.1-.5-.1-.5-.4zm-.4-.8H20c-.2 0-.3.1-.4.2v-.2h-.3v1.6h.3v-.9c0-.3.1-.4.3-.4h.2l.1-.3zm-1.4.8c0-.5-.3-.8-.8-.8s-.8.3-.8.8.3.8.8.8c.2 0 .5-.1.7-.2l-.1-.3c-.1.1-.3.2-.5.2s-.4-.1-.5-.4h1.2v-.1zm-1.7.7l-.1-.3c-.1.1-.2.1-.3.1-.2 0-.2-.1-.2-.3v-.7h.5v-.3h-.6v-.5h-.3v.5h-.3v.3h.3v.7c0 .4.1.6.6.6.1 0 .3 0 .4-.1zm-1.6-.4c0-.3-.2-.4-.6-.5h-.2c-.1 0-.3 0-.3-.2 0-.1.1-.2.3-.2.2 0 .4.1.5.1l.1-.3c-.2-.1-.4-.2-.6-.2-.4 0-.7.2-.7.5s.2.4.5.5h.2c.2 0 .3.1.3.2s-.1.2-.4.2c-.2 0-.4-.1-.5-.2l-.2.3c.2.1.4.2.7.2.7.1.9-.1.9-.4zm-1.7-1.1h-.3v.2c-.1-.1-.3-.2-.5-.2-.4 0-.8.3-.8.8s.3.8.8.8c.2 0 .4-.1.5-.2v.2h.3v-1.6zm-2 .6c0-.4-.2-.6-.6-.6-.2 0-.4.1-.6.3-.1-.2-.3-.3-.5-.3s-.3 0-.5.2v-.2h-.3v1.6h.3v-.9c0-.3.2-.4.4-.4s.3.1.3.4v.9h.3v-.9c0-.3.2-.4.4-.4s.3.1.3.4v.9h.3v-1zm-3.5-8c0 3.3 2.7 6 6 6 1.2 0 2.2-.3 3.1-.9-1.4-1.2-2.4-3-2.4-5.1 0-2 .9-3.9 2.4-5.1-.9-.6-2-.9-3.1-.9-3.3 0-6 2.7-6 6zM36 3v18c0 1.7-1.3 3-3 3H3c-1.7 0-3-1.3-3-3V3c0-1.7 1.3-3 3-3h30c1.7 0 3 1.3 3 3zM25.9 18.2c-.3 0-.5.2-.5.5s.2.5.5.5.5-.2.5-.5-.2-.5-.5-.5zm-7.8-.1c-.2 0-.4.2-.4.4h.8c-.1-.2-.2-.4-.4-.4zm-5.1.1c-.3 0-.5.2-.5.5s.2.5.5.5.5-.2.5-.5-.2-.5-.5-.5zm10.2.5c0 .3-.2.5-.5.5s-.5-.2-.5-.5.2-.5.5-.5.5.2.5.5z"/></svg>